<?xml version="1.0" standalone="no"?>
<!DOCTYPE svg PUBLIC "-//W3C//DTD SVG 20010904//EN"
 "http://www.w3.org/TR/2001/REC-SVG-20010904/DTD/svg10.dtd">
<svg version="1.0" xmlns="http://www.w3.org/2000/svg"
 width="231.000000pt" height="247.000000pt" viewBox="0 0 231.000000 247.000000"
 preserveAspectRatio="xMidYMid meet">

<g transform="translate(0.000000,247.000000) scale(0.100000,-0.100000)"
fill="#fff" stroke="none">
<path d="M0 2459 c0 -5 5 -7 10 -4 5 3 10 8 10 11 0 2 -4 4 -10 4 -5 0 -10 -5
-10 -11z"/>
<path d="M2295 2460 c3 -5 8 -10 11 -10 2 0 4 5 4 10 0 6 -5 10 -11 10 -5 0
-7 -4 -4 -10z"/>
<path d="M1733 2178 c-6 -7 -18 -35 -28 -63 -63 -170 -145 -248 -347 -329 -56
-22 -48 -40 33 -70 153 -57 235 -135 302 -289 27 -62 47 -97 56 -95 7 2 25 32
40 68 65 161 124 227 256 290 46 22 90 40 98 40 20 0 43 29 31 39 -5 4 -36 18
-69 31 -168 64 -247 143 -315 313 -30 75 -40 86 -57 65z"/>
<path d="M956 1845 c-9 -9 -22 -38 -30 -66 -21 -70 -89 -227 -127 -290 -121
-206 -276 -319 -594 -434 -60 -22 -85 -42 -85 -66 0 -22 13 -30 132 -73 359
-130 513 -284 654 -655 42 -109 55 -130 80 -131 17 0 41 32 52 70 22 73 45
129 97 235 122 248 297 386 635 502 49 16 80 39 80 58 0 21 -33 41 -115 70
-379 134 -546 301 -680 680 -39 111 -63 135 -99 100z"/>
</g>
</svg>
